<?xml version="1.0" encoding="UTF-8"?>
<svg width="32px" height="23px" viewBox="0 0 32 23" version="1.1" xmlns="http://www.w3.org/2000/svg" xmlns:xlink="http://www.w3.org/1999/xlink">
    <!-- Generator: Sketch 49.2 (51160) - http://www.bohemiancoding.com/sketch -->
    <title>Film</title>
    <desc>Created with Sketch.</desc>
    <defs></defs>
    <g id="Page-1" stroke="none" stroke-width="1" fill="none" fill-rule="evenodd">
        <g id="Hollywood-Profile-edit" transform="translate(-29.000000, -123.000000)" fill="#333333" fill-rule="nonzero" stroke="#333333" stroke-width="0.857142857">
            <g id="menulist">
                <g id="menu" transform="translate(30.000000, 124.000000)">
                    <g id="video-camera">
                        <path d="M29.0857895,4.23271109 C28.5136842,3.87185066 27.8031579,3.82356286 27.1868421,4.10446285 L23.1578947,5.93887996 L23.1578947,5.87086166 C23.1578947,4.92431697 22.3773684,4.1537891 21.4173684,4.1537891 L18.9473684,4.1537891 L18.9473684,1.55767091 C18.9473684,0.698875015 18.2389474,0 17.3684211,0 L0.526315789,0 C0.235789474,0 0,0.232092966 0,0.519223637 C0,0.806354308 0.235789474,1.03844727 0.526315789,1.03844727 L17.3684211,1.03844727 C17.6584211,1.03844727 17.8947368,1.27105946 17.8947368,1.55767091 L17.8947368,4.1537891 L1.74052632,4.1537891 C0.780526316,4.15430832 0,4.92431697 0,5.87086166 L0,19.0523921 C0,19.9989368 0.780526316,20.7694647 1.74052632,20.7694647 L21.4173684,20.7694647 C22.3773684,20.7694647 23.1578947,19.9994561 23.1578947,19.0523921 L23.1578947,18.9843738 L27.1868421,20.818791 C27.4531579,20.9397701 27.7368421,21 28.0194737,21 C28.3915789,21 28.7610526,20.8961553 29.0863158,20.6905427 C29.6584211,20.3296823 30,19.7138831 30,19.0435653 L30,5.88020769 C30,5.20988997 29.6584211,4.59409074 29.0857895,4.23271109 Z M22.1052632,19.0523921 C22.1052632,19.4267524 21.7968421,19.7310174 21.4173684,19.7310174 L1.74052632,19.7310174 C1.36105263,19.7310174 1.05263158,19.4267524 1.05263158,19.0523921 L1.05263158,5.87086166 C1.05263158,5.49650142 1.36105263,5.19223637 1.74052632,5.19223637 L21.4173684,5.19223637 C21.7968421,5.19223637 22.1052632,5.49650142 22.1052632,5.87086166 L22.1052632,6.41812338 L22.1052632,18.5051304 L22.1052632,19.0523921 Z M28.9473684,19.0435653 C28.9473684,19.3623686 28.7910526,19.6443071 28.5189474,19.8161701 C28.2468421,19.9880331 27.9226316,20.0113982 27.6284211,19.8758808 L23.1578947,17.8410434 L23.1578947,7.08221041 L27.6278947,5.04737298 C27.9215789,4.91237483 28.2463158,4.93522067 28.5184211,5.10708369 C28.7905263,5.27894672 28.9473684,5.56140438 28.9473684,5.88020769 L28.9473684,19.0435653 Z" id="Film"></path>
                    </g>
                </g>
            </g>
        </g>
    </g>
</svg>