<?xml version="1.0" encoding="UTF-8"?>
<svg width="21px" height="22px" viewBox="0 0 21 22" version="1.1" xmlns="http://www.w3.org/2000/svg" xmlns:xlink="http://www.w3.org/1999/xlink">
    <!-- Generator: Sketch 49.2 (51160) - http://www.bohemiancoding.com/sketch -->
    <title>search</title>
    <desc>Created with Sketch.</desc>
    <defs></defs>
    <g id="Page-1" stroke="none" stroke-width="1" fill="none" fill-rule="evenodd">
        <g id="film-realease-pop-up" transform="translate(-79.000000, -184.000000)" fill="#333333" fill-rule="nonzero">
            <g id="menulist">
                <g id="menu" transform="translate(79.000000, 183.000000)">
                    <g id="search-(3)" transform="translate(0.000000, 1.000000)">
                        <path d="M20.67975,20.0265614 L15.5955,14.5840702 C16.90275,12.9846316 17.619,10.9722105 17.619,8.87719298 C17.619,3.98238596 13.74975,0 8.994,0 C4.23825,0 0.369,3.98238596 0.369,8.87719298 C0.369,13.772 4.23825,17.754386 8.994,17.754386 C10.779375,17.754386 12.48075,17.2001404 13.935375,16.148 L19.05825,21.6317895 C19.272375,21.8606667 19.560375,21.9868772 19.869,21.9868772 C20.161125,21.9868772 20.43825,21.8722456 20.648625,21.6638246 C21.095625,21.2211228 21.109875,20.4870175 20.67975,20.0265614 Z M8.994,2.31578947 C12.50925,2.31578947 15.369,5.25915789 15.369,8.87719298 C15.369,12.4952281 12.50925,15.4385965 8.994,15.4385965 C5.47875,15.4385965 2.619,12.4952281 2.619,8.87719298 C2.619,5.25915789 5.47875,2.31578947 8.994,2.31578947 Z" id="search"></path>
                    </g>
                </g>
            </g>
        </g>
    </g>
</svg>