<svg xmlns="http://www.w3.org/2000/svg" width="1440" height="298" viewBox="0 0 1440 298">
    <defs>
        <linearGradient id="a" x1="50%" x2="50%" y1="0%" y2="100%">
            <stop offset="0%" stop-color="#1958E1"/>
            <stop offset="100%" stop-color="#04D7F6"/>
        </linearGradient>
    </defs>
    <g fill="none" fill-rule="evenodd">
        <path fill="#00E7FF" d="M-191 298c37.468-89.996 70.379-134.993 98.733-134.993 42.53 0 42.53 91.995 106.327 75.996 63.796-16 195.069-143.811 299.235-143.811 191.593 0 143.042 210.426 367.59 181.9C905.431 248.566 883.98.06 1062.143.06c178.164 0 276.161 253.758 332.653 277.032 56.49 23.274 47.724-96.177 106.327-96.177s33.761 131.818 127.593 96.177c93.831-35.641 72.505-201.763 150.377-201.763 77.872 0 83.895 197.05 161.01 201.763 77.115 4.712 123.168-181.9 164.048-181.9 21.213 0 10.251 99.984 65.315 181.9 6.59 9.804 75.403-350.056 100.252-347.074 9.708 1.166 9.708 123.826 0 367.982H-191z" opacity=".14"/>
        <path fill="url(#a)" d="M0 368c137.66-135.206 270.391-202.81 398.192-202.81 191.7 0 143.122 210.428 367.795 181.902 224.674-28.526 203.21-277.034 381.474-277.034 178.264 0 276.317 253.76 332.84 277.034 56.523 23.273 47.751-96.178 106.387-96.178s33.78 131.82 127.664 96.178c93.885-35.642 72.547-201.764 150.462-201.764 77.916 0 83.942 197.051 161.1 201.764 77.16 4.712 123.238-181.901 164.14-181.901 21.226 0-4.94 82.894 50.155 164.81 55.095 81.917 90.643-332.967 115.506-329.985 9.713 1.165 9.713 123.826 0 367.984H0z" opacity=".1" transform="translate(-358 -70)"/>
    </g>
</svg>
