<?xml version="1.0" encoding="UTF-8"?>
<svg width="21px" height="22px" viewBox="0 0 21 22" version="1.1" xmlns="http://www.w3.org/2000/svg" xmlns:xlink="http://www.w3.org/1999/xlink">
    <!-- Generator: Sketch 49.2 (51160) - http://www.bohemiancoding.com/sketch -->
    <title>calender</title>
    <desc>Created with Sketch.</desc>
    <defs></defs>
    <g id="Page-1" stroke="none" stroke-width="1" fill="none" fill-rule="evenodd">
        <g id="film-realease-pop-up" transform="translate(-79.000000, -233.000000)" fill="#333333" fill-rule="nonzero">
            <g id="menulist">
                <g id="menu" transform="translate(79.000000, 232.000000)">
                    <g id="calendar-page-empty" transform="translate(0.000000, 1.000000)">
                        <path d="M20.5206196,3.60945596 C20.2012537,3.29844127 19.8223465,3.14291243 19.3848704,3.14291243 L17.7696524,3.14291243 L17.7696524,1.96429877 C17.7696524,1.42422626 17.571756,0.961767666 17.1763611,0.577094999 C16.7807452,0.192422332 16.3056083,0 15.7501547,0 L14.9426562,0 C14.3872468,0 13.9119331,0.192422332 13.516494,0.577137999 C13.1209223,0.961767666 12.9232027,1.42426925 12.9232027,1.96434177 L12.9232027,3.14295543 L8.0772393,3.14295543 L8.0772393,1.96434177 C8.0772393,1.42426925 7.87943134,0.961810666 7.48394803,0.577137999 C7.08855313,0.192422332 6.6131952,0 6.05778581,0 L5.25015471,0 C4.69487794,0 4.2194758,0.192422332 3.82399249,0.577137999 C3.42859759,0.961767666 3.23074543,1.42426925 3.23074543,1.96434177 L3.23074543,3.14295543 L1.61548322,3.14295543 C1.17787456,3.14295543 0.799320959,3.29848427 0.479601416,3.60949896 C0.159881873,3.92047065 0,4.28888954 0,4.71445464 L0,20.4287158 C0,20.8539799 0.159881873,21.2223128 0.479601416,21.5334995 C0.799276756,21.8444282 1.17783035,22 1.61548322,22 L19.384561,22 C19.822037,22 20.2009885,21.8444712 20.5203102,21.5334995 C20.8400739,21.2224418 21,20.8539369 21,20.4287158 L21,4.71441164 C20.9999558,4.28871754 20.8402065,3.92047065 20.5206196,3.60945596 Z M14.5388186,1.96447077 C14.5388186,1.84979136 14.5763468,1.75557966 14.651978,1.68209368 C14.7276091,1.6085217 14.8244135,1.57167121 14.942391,1.57167121 L15.7498895,1.57167121 C15.8679112,1.57167121 15.9644061,1.6083927 16.0403025,1.68209368 C16.1159779,1.75570866 16.1537713,1.84992035 16.1537713,1.96447077 L16.1537713,5.50005375 C16.1537713,5.61469016 16.1159779,5.70872986 16.0403025,5.78243083 C15.9643619,5.85591682 15.8679112,5.8928533 15.7498895,5.8928533 L14.942391,5.8928533 C14.8244135,5.8928533 14.7276091,5.85608881 14.651978,5.78243083 C14.5763468,5.70868686 14.5388186,5.61469016 14.5388186,5.50005375 L14.5388186,1.96447077 Z M4.84636126,1.96447077 C4.84636126,1.84979136 4.88415474,1.75557966 4.9598743,1.68209368 C5.03563806,1.6085217 5.13230979,1.57167121 5.25015471,1.57167121 L6.05778581,1.57167121 C6.17567494,1.57167121 6.27252348,1.6083927 6.34806623,1.68209368 C6.42369738,1.75570866 6.46166767,1.84992035 6.46166767,1.96447077 L6.46166767,5.50005375 C6.46166767,5.61469016 6.42387419,5.70885885 6.34806623,5.78243083 C6.27234667,5.85591682 6.17567494,5.8928533 6.05778581,5.8928533 L5.25015471,5.8928533 C5.13230979,5.8928533 5.03550545,5.85608881 4.9598743,5.78243083 C4.88433155,5.70868686 4.84636126,5.61469016 4.84636126,5.50005375 L4.84636126,1.96447077 Z M19.384561,20.4285008 L1.61548322,20.4285008 L1.61548322,7.85719507 L19.384561,7.85719507 L19.384561,20.4285008 Z" id="calender"></path>
                    </g>
                </g>
            </g>
        </g>
    </g>
</svg>