<?xml version="1.0" encoding="UTF-8"?>
<svg width="24px" height="24px" viewBox="0 0 24 24" version="1.1" xmlns="http://www.w3.org/2000/svg" xmlns:xlink="http://www.w3.org/1999/xlink">
    <!-- Generator: Sketch 49.2 (51160) - http://www.bohemiancoding.com/sketch -->
    <title>list</title>
    <desc>Created with Sketch.</desc>
    <defs></defs>
    <g id="Page-1" stroke="none" stroke-width="1" fill="none" fill-rule="evenodd">
        <g id="Hollywood-comp-builder" transform="translate(-78.000000, -396.000000)" fill-rule="nonzero">
            <g id="menulist">
                <g id="menu" transform="translate(79.000000, 396.000000)">
                    <g id="list" transform="translate(0.000000, 1.000000)">
                        <path d="M21.5523026,0 L0.447697411,0 C0.200493824,0 0,0.200493824 0,0.447697411 L0,21.5523026 C0,21.7995062 0.200493824,22 0.447697411,22 L18.3870073,22 C18.6342109,22 18.8347047,21.7995062 18.8347047,21.5523026 C18.8347047,21.305099 18.6342109,21.1046052 18.3870073,21.1046052 L0.895394822,21.1046052 L0.895394822,0.895394822 L21.1046052,0.895394822 L21.1046052,21.5523026 C21.1046052,21.7995062 21.305099,22 21.5523026,22 C21.7995062,22 22,21.7995062 22,21.5523026 L22,0.447697411 C22,0.200493824 21.7995062,0 21.5523026,0 Z" id="Shape" stroke="#333333" fill="#333333"></path>
                        <path d="M4.5,5 C3.67284783,5 3,5.67284783 3,6.5 C3,7.32715217 3.67284783,8 4.5,8 C5.32715217,8 6,7.32715217 6,6.5 C6,5.67284783 5.32715217,5 4.5,5 Z M4.5,7.2173913 C4.10445652,7.2173913 3.7826087,6.89554348 3.7826087,6.5 C3.7826087,6.10445652 4.10445652,5.7826087 4.5,5.7826087 C4.89554348,5.7826087 5.2173913,6.10445652 5.2173913,6.5 C5.2173913,6.89554348 4.8956087,7.2173913 4.5,7.2173913 Z" id="Shape" fill="#000000"></path>
                        <path d="M18.5657895,6 L8.43421053,6 C8.19445395,6 8,6.22391667 8,6.5 C8,6.77608333 8.19445395,7 8.43421053,7 L18.5657895,7 C18.8055461,7 19,6.77608333 19,6.5 C19,6.22391667 18.8056184,6 18.5657895,6 Z" id="Shape" fill="#000000"></path>
                        <path d="M4.5,9 C4.28393478,9 4.10869565,9.17523913 4.10869565,9.39130435 C4.10869565,9.60736957 4.28393478,9.7826087 4.5,9.7826087 C4.89554348,9.7826087 5.2173913,10.1044565 5.2173913,10.5 C5.2173913,10.8955435 4.89554348,11.2173913 4.5,11.2173913 C4.10445652,11.2173913 3.7826087,10.8955435 3.7826087,10.5 C3.7826087,10.2839348 3.60736957,10.1086957 3.39130435,10.1086957 C3.17523913,10.1086957 3,10.2839348 3,10.5 C3,11.3271522 3.67284783,12 4.5,12 C5.32715217,12 6,11.3271522 6,10.5 C6,9.67284783 5.32715217,9 4.5,9 Z" id="Shape" fill="#000000"></path>
                        <path d="M18.5657895,11 L8.43421053,11 C8.19445395,11 8,11.2239167 8,11.5 C8,11.7760833 8.19445395,12 8.43421053,12 L18.5657895,12 C18.8055461,12 19,11.7760833 19,11.5 C19,11.2239167 18.8056184,11 18.5657895,11 Z" id="Shape" fill="#000000"></path>
                        <path d="M4.5,14 C3.67284783,14 3,14.6728478 3,15.5 C3,16.3271522 3.67284783,17 4.5,17 C5.32715217,17 6,16.3271522 6,15.5 C6,14.6728478 5.32715217,14 4.5,14 Z M4.5,16.2173913 C4.10445652,16.2173913 3.7826087,15.8955435 3.7826087,15.5 C3.7826087,15.1044565 4.10445652,14.7826087 4.5,14.7826087 C4.89554348,14.7826087 5.2173913,15.1044565 5.2173913,15.5 C5.2173913,15.8955435 4.8956087,16.2173913 4.5,16.2173913 Z" id="Shape" fill="#000000"></path>
                        <path d="M18.5657895,15 L8.43421053,15 C8.19445395,15 8,15.2239167 8,15.5 C8,15.7760833 8.19445395,16 8.43421053,16 L18.5657895,16 C18.8055461,16 19,15.7760833 19,15.5 C19,15.2239167 18.8056184,15 18.5657895,15 Z" id="Shape" fill="#000000"></path>
                    </g>
                </g>
            </g>
        </g>
    </g>
</svg>