<?xml version="1.0" encoding="UTF-8"?>
<svg width="27px" height="27px" viewBox="0 0 27 27" version="1.1" xmlns="http://www.w3.org/2000/svg" xmlns:xlink="http://www.w3.org/1999/xlink">
    <!-- Generator: Sketch 49.2 (51160) - http://www.bohemiancoding.com/sketch -->
    <title>Tools</title>
    <desc>Created with Sketch.</desc>
    <defs></defs>
    <g id="Page-1" stroke="none" stroke-width="1" fill="none" fill-rule="evenodd">
        <g id="Hollywood-Profile-edit" transform="translate(-31.000000, -276.000000)" fill-rule="nonzero" stroke="#333333" stroke-width="1.66666667">
            <g id="menulist">
                <g id="menu" transform="translate(32.000000, 277.000000)">
                    <g id="Tools">
                        <path d="M0.704464915,20.8958249 C-0.234821638,21.8352993 -0.234821638,23.3567373 0.704464915,24.2962117 C1.17410819,24.7659488 1.78959556,25 2.40513565,25 C3.02067575,25 3.63616311,24.7659488 4.10580639,24.2962117 L12,16.3988046 L8.59865853,13 L0.704464915,20.8958249 Z" id="Shape"></path>
                        <polygon id="Shape" points="19.8179542 6.85936893 23.2192896 5.10128377 25 1.65973585 23.339784 0 19.8988055 1.78181206 18.1370821 5.17898285 14 9.31961392 15.6776903 11"></polygon>
                        <path d="M20.6265638,15.6562183 L20.3109227,15.6249679 C19.7390577,15.6249679 19.1968499,15.7421571 18.6906213,15.9296598 L9.07027474,6.30781076 C9.25777821,5.80158432 9.37496788,5.25937873 9.37496788,4.68751606 L9.3437173,4.37187624 C9.17810979,1.9327992 7.16871817,0 4.68748394,0 C3.9655853,0 3.28902056,0.176554761 2.67809232,0.468756746 L5.79215076,3.58280238 C5.9562163,3.74686725 6.06872866,3.94058919 6.14371976,4.14531048 C6.34839049,4.6984126 6.2374715,5.34531747 5.79215076,5.79217834 C5.48745762,6.09687023 5.08747078,6.24998715 4.68748394,6.24998715 C4.50311581,6.24998715 4.32028964,6.20938213 4.14527613,6.1437459 C3.9406054,6.06561978 3.74683125,5.9562432 3.58276572,5.79063638 L0.468758674,2.6781327 C0.176555487,3.28905844 0,3.96562039 0,4.68751606 C0,7.16874009 1.93280714,9.17812345 4.37189422,9.34373028 L4.68753534,9.37498073 C5.25940036,9.37498073 5.80160817,9.25779154 6.3078367,9.0718822 L15.9265899,18.6921892 C15.7422218,19.1984157 15.6250321,19.7406213 15.6250321,20.3124839 L15.6578247,20.6281238 C15.8203482,23.0687428 17.8312818,25 20.3125161,25 C21.0344147,25 21.7125214,24.8265806 22.3219077,24.5312433 L19.2078492,21.4171976 C19.0453257,21.2546747 18.9312713,21.0594108 18.8531449,20.8562829 C18.6484742,20.3031808 18.7593932,19.6547339 19.2078492,19.2078731 C19.509407,18.9031812 19.9125292,18.7500642 20.3125161,18.7500642 C20.4968842,18.7500642 20.678117,18.7891273 20.8562658,18.8563055 C21.0609366,18.9328897 21.2562527,19.0422662 21.4171829,19.2078731 L24.5312413,22.3219187 C24.8249865,21.7093996 25,21.034431 25,20.3125353 C24.998458,17.8312085 23.0656509,15.8218251 20.6265638,15.6562183 Z" id="Shape"></path>
                    </g>
                </g>
            </g>
        </g>
    </g>
</svg>